<svg xmlns="http://www.w3.org/2000/svg" viewBox="0 0 512 512"><path d="M256.01 460.77c14.15 0 25.59-11.47 25.59-25.59 0-14.15-11.45-25.59-25.59-25.59-14.15 0-25.59 11.45-25.59 25.59-.01 14.12 11.44 25.59 25.59 25.59zm26.44-97.7c39.82 14.62 60.24 58.76 45.62 98.58-14.62 39.82-58.76 60.26-98.58 45.62-39.82-14.62-60.24-58.74-45.62-98.58a76.826 76.826 0 0146.54-45.94v-26.79l.2-5.67a25.632 25.632 0 00-11.82-16.3l-78.98-47.22a76.821 76.821 0 01-37.37-65.91v-51.59c-39.99-14.15-60.96-58.04-46.82-98.03 14.12-39.99 58.01-60.96 98-46.82 39.99 14.12 60.96 58.01 46.82 98-7.72 21.9-24.94 39.09-46.82 46.84v51.59c0 9 4.75 17.35 12.47 21.97l78.98 47.24c4.02 2.4 7.82 5.2 11.32 8.3a77.09 77.09 0 0111.37-8.3l78.98-47.24a25.63 25.63 0 0012.47-21.97v-51.29c-40.14-13.7-61.59-57.36-47.87-97.5C321.94 20.99 351.13.1 383.95.07c42.42-.02 76.81 34.34 76.81 76.76.02 32.22-20.1 61.04-50.36 72.11v51.91c0 27.02-14.2 52.04-37.37 65.91L294.08 314c-6 3.6-10.27 9.5-11.82 16.3l.2 5.65v27.12zM128.04 102.45c14.15 0 25.59-11.47 25.59-25.59 0-14.15-11.45-25.59-25.59-25.59s-25.59 11.45-25.59 25.59c-.01 14.11 11.44 25.59 25.59 25.59zm255.94 0c14.15 0 25.59-11.47 25.59-25.59 0-14.15-11.45-25.59-25.59-25.59-14.15 0-25.59 11.45-25.59 25.59 0 14.11 11.44 25.59 25.59 25.59z"/></svg>